<?xml version="1.0" encoding="utf-8"?>
<!-- Generator: Adobe Illustrator 16.0.0, SVG Export Plug-In . SVG Version: 6.00 Build 0)  -->
<!DOCTYPE svg PUBLIC "-//W3C//DTD SVG 1.1//EN" "http://www.w3.org/Graphics/SVG/1.1/DTD/svg11.dtd">
<svg version="1.1" id="Capa_1" xmlns="http://www.w3.org/2000/svg" xmlns:xlink="http://www.w3.org/1999/xlink" x="0px" y="0px"
	 width="841.89px" height="595.28px" viewBox="0 0 841.89 595.28" enable-background="new 0 0 841.89 595.28" xml:space="preserve">
<g>
	<path fill="#010202" d="M377.226,302.372c-0.472-13.146-0.944-29.054-0.944-44.96h-0.472c-3.291,13.96-7.681,29.54-11.763,42.365
		l-12.861,42.685h-18.664l-11.295-42.363c-3.449-12.823-7.06-28.402-9.569-42.687h-0.311c-0.633,14.773-1.098,31.65-1.884,45.284
		l-1.885,41.554h-22.112l6.744-109.398h31.844l10.348,36.521c3.297,12.662,6.592,26.29,8.944,39.116h0.467
		c2.98-12.658,6.59-27.105,10.04-39.281l11.295-36.355h31.214l5.803,109.398h-23.371L377.226,302.372z"/>
	<path fill="#010202" d="M463.789,344.25l-1.408-7.955h-0.474c-5.014,6.33-12.857,9.737-21.959,9.737
		c-15.523,0-24.778-11.686-24.778-24.344c0-20.614,17.88-30.517,45.017-30.354v-1.139c0-4.214-2.196-10.222-13.959-10.222
		c-7.839,0-16.157,2.76-21.181,6.008l-4.388-15.91c5.332-3.085,15.844-6.979,29.804-6.979c25.564,0,33.724,15.582,33.724,34.25
		v27.59c0,7.628,0.312,14.935,1.1,19.317H463.789z M460.963,306.755c-12.543-0.161-22.271,2.923-22.271,12.498
		c0,6.329,4.083,9.413,9.416,9.413c5.958,0,10.818-4.057,12.393-9.093c0.313-1.296,0.462-2.756,0.462-4.221V306.755z"/>
	<path fill="#010202" d="M527.623,242.803c0,6.818-5.016,12.335-12.859,12.335c-7.531,0-12.55-5.517-12.394-12.335
		c-0.156-7.141,4.862-12.498,12.55-12.498S527.467,235.662,527.623,242.803z M503.003,344.25v-79.37h23.838v79.37H503.003z"/>
	<path fill="#010202" d="M545.973,229.01h23.841v115.24h-23.841V229.01z"/>
	<path fill="#010202" d="M591.454,234.852h13.647v52.752h0.466c2.827-4.221,5.646-8.12,8.321-11.687l32.309-41.065h16.94
		l-38.27,46.419l41.251,62.979h-16.164l-34.817-53.726l-10.036,12.01v41.716h-13.647V234.852z"/>
	<path fill="#010202" d="M692.926,243.616c0.167,4.867-3.292,8.765-8.78,8.765c-4.862,0-8.309-3.898-8.309-8.765
		c0-5.033,3.602-8.925,8.625-8.925C689.634,234.691,692.926,238.583,692.926,243.616z M677.557,344.25v-78.558h13.805v78.558
		H677.557z"/>
	<path fill="#010202" d="M730.885,243.128v22.564h19.76v10.874h-19.76v42.358c0,9.741,2.671,15.258,10.353,15.258
		c3.601,0,6.278-0.483,7.998-0.97l0.633,10.715c-2.669,1.136-6.903,1.942-12.239,1.942c-6.433,0-11.611-2.109-14.902-6.003
		c-3.925-4.222-5.335-11.201-5.335-20.452v-42.849h-11.761v-10.874h11.761v-18.832L730.885,243.128z"/>
</g>
<path fill="#010202" d="M243.275,292.618c6.696,5.202,6.696,13.636,0,18.837l-60.007,46.611c-6.697,5.202-17.555,5.202-24.251,0
	l-60.006-46.611c-6.697-5.201-6.697-13.636,0-18.837l60.006-46.611c6.696-5.202,17.554-5.202,24.251,0L243.275,292.618z"/>
<path fill="#FFFFFF" stroke="#000000" stroke-width="2" stroke-miterlimit="10" d="M243.275,274.03
	c6.696,5.202,6.696,13.636,0,18.838l-60.007,46.611c-6.697,5.202-17.555,5.202-24.251,0l-60.006-46.611
	c-6.697-5.202-6.697-13.636,0-18.838l60.006-46.611c6.696-5.202,17.554-5.202,24.251,0L243.275,274.03z"/>
<path fill="#FFFFFF" stroke="#000000" stroke-width="2" stroke-linejoin="round" stroke-miterlimit="10" d="M243.286,274.038
	l0.494-52.213c0-7.357-7.677-13.32-17.147-13.32l-67.605,0.085l6.063,60.739L243.286,274.038z"/>
<path fill="#FFFFFF" stroke="#000000" stroke-width="2" stroke-miterlimit="10" d="M185.86,286.591
	c-2.164,1.681-5.674,1.681-7.838,0l-35.577-27.635c-2.165-1.682-2.165-4.408,0-6.089l35.577-27.635c2.164-1.681,5.674-1.681,7.838,0
	l35.576,27.635c2.165,1.682,2.165,4.408,0.001,6.089L185.86,286.591z"/>
<path fill="#010202" stroke="#000000" stroke-width="2" stroke-linejoin="round" stroke-miterlimit="10" d="M243.286,274.038
	l-60.006,46.611c-6.697,5.202-17.556,5.202-24.253,0l-60.004-46.611c-6.697-5.202-6.698-13.636-0.001-18.838l60.005-46.61
	l6.348,60.756L243.286,274.038z"/>
<path fill="#FFFFFF" stroke="#000000" stroke-width="2" stroke-linejoin="round" stroke-miterlimit="10" d="M171.144,324.55
	l-12.116-115.961L98.895,255.3c-6.697,5.202-6.58,13.527,0.117,18.73l60.016,46.619c0,0,2.565,2.138,6.522,3.174
	C168.747,324.658,171.144,324.55,171.144,324.55z"/>
<path fill="#010202" d="M143.032,260.121c-0.826,0.642-1.867,0.875-2.324,0.519l-20.12-15.629c-0.457-0.355-0.157-1.164,0.668-1.805
	l0,0c0.826-0.642,1.867-0.874,2.324-0.519l20.12,15.629C144.157,258.67,143.858,259.479,143.032,260.121L143.032,260.121z"/>
<path fill="#010202" d="M202.499,260.645c-0.826,0.642-1.955,0.806-2.521,0.366l-24.907-19.348c-0.565-0.44-0.354-1.317,0.472-1.958
	l0,0c0.826-0.642,1.955-0.806,2.521-0.366l24.907,19.348C203.536,259.126,203.325,260.003,202.499,260.645L202.499,260.645z"/>
<path fill="#010202" d="M195.845,265.814c-0.826,0.642-1.955,0.806-2.521,0.366l-24.907-19.348
	c-0.566-0.439-0.355-1.316,0.472-1.958l0,0c0.826-0.642,1.955-0.806,2.521-0.366l24.907,19.348
	C196.882,264.295,196.671,265.172,195.845,265.814L195.845,265.814z"/>
</svg>
