<svg id="Capa_1" data-name="Capa 1" xmlns="http://www.w3.org/2000/svg" viewBox="0 0 154.37 153.46"><defs><style>.cls-1{fill:#342876;}.cls-2{fill:#4f3e91;}.cls-3{fill:#7a69ac;}.cls-4{fill:#e5e5e4;}.cls-5{fill:#9f8fc4;}.cls-6{fill:#b9b4d3;}.cls-7{fill:#cdcadd;}.cls-8{fill:#fff;}</style></defs><title>logotypeV107 copy</title><path class="cls-1" d="M493.24,277.62c6.7,5.2,6.7,13.63,0,18.84l-60,46.61c-6.69,5.2-17.55,5.2-24.25,0l-60-46.61c-6.7-5.21-6.7-13.64,0-18.84L409,231c6.7-5.21,17.56-5.21,24.25,0Z" transform="translate(-343.89 -193.5)"/><path class="cls-2" d="M493.24,259c6.7,5.2,6.7,13.64,0,18.84l-60,46.61c-6.69,5.2-17.55,5.2-24.25,0l-60-46.61c-6.7-5.2-6.7-13.64,0-18.84l60-46.61c6.7-5.2,17.56-5.2,24.25,0Z" transform="translate(-343.89 -193.5)"/><path class="cls-3" d="M493.25,259l.49-52.22c0-7.35-7.67-13.32-17.14-13.32l-67.61.09,6.06,60.74Z" transform="translate(-343.89 -193.5)"/><path class="cls-4" d="M435.82,271.59a6.71,6.71,0,0,1-7.83,0L392.41,244a3.66,3.66,0,0,1,0-6.09L428,210.23a6.71,6.71,0,0,1,7.83,0l35.58,27.64a3.66,3.66,0,0,1,0,6.09Z" transform="translate(-343.89 -193.5)"/><path class="cls-5" d="M493.25,259l-60,46.61c-6.69,5.2-17.55,5.2-24.25,0L349,259c-6.7-5.2-6.7-13.64,0-18.84l60-46.61,6.35,60.76Z" transform="translate(-343.89 -193.5)"/><path class="cls-6" d="M421.11,309.55,409,193.59,348.86,240.3c-6.7,5.2-6.58,13.53.12,18.73l60,46.62a18.34,18.34,0,0,0,6.52,3.17A20.65,20.65,0,0,0,421.11,309.55Z" transform="translate(-343.89 -193.5)"/><path class="cls-7" d="M393,245.12c-.83.64-1.87.88-2.33.52L370.55,230c-.46-.35-.16-1.16.67-1.8h0c.83-.65,1.87-.88,2.32-.52l20.12,15.63c.46.35.16,1.16-.66,1.8Z" transform="translate(-343.89 -193.5)"/><path class="cls-8" d="M452.46,245.65a2.26,2.26,0,0,1-2.52.36L425,226.66c-.56-.44-.35-1.31.48-1.95h0a2.25,2.25,0,0,1,2.52-.37l24.9,19.35c.57.44.36,1.31-.47,2Z" transform="translate(-343.89 -193.5)"/><path class="cls-8" d="M445.81,250.81a2.25,2.25,0,0,1-2.52.37l-24.91-19.35c-.57-.44-.36-1.31.47-2h0a2.26,2.26,0,0,1,2.52-.36l24.91,19.35c.57.44.35,1.31-.47,1.95Z" transform="translate(-343.89 -193.5)"/></svg>