<?xml version="1.0" encoding="utf-8"?>
<!-- Generator: Adobe Illustrator 16.0.0, SVG Export Plug-In . SVG Version: 6.00 Build 0)  -->
<!DOCTYPE svg PUBLIC "-//W3C//DTD SVG 1.1//EN" "http://www.w3.org/Graphics/SVG/1.1/DTD/svg11.dtd">
<svg version="1.1" id="Capa_1" xmlns="http://www.w3.org/2000/svg" xmlns:xlink="http://www.w3.org/1999/xlink" x="0px" y="0px"
	 width="841.89px" height="595.28px" viewBox="0 0 841.89 595.28" enable-background="new 0 0 841.89 595.28" xml:space="preserve">
<path fill="#43328A" d="M471.4,237.867l-35.576-27.635c-2.164-1.681-5.674-1.681-7.838,0l-35.577,27.635
	c-2.165,1.681,1.426,3.451,3.591,5.132l31.986,28.591c2.164,1.681,5.674,1.681,7.838,0l35.577-27.635
	C473.565,242.275,473.565,239.549,471.4,237.867z M445.809,250.814c-0.826,0.642-1.955,0.806-2.521,0.366l-24.907-19.348
	c-0.566-0.439-0.355-1.316,0.472-1.958c0.826-0.642,1.955-0.806,2.521-0.366l24.907,19.348
	C446.846,249.295,446.635,250.172,445.809,250.814z M452.463,245.645c-0.826,0.642-1.955,0.806-2.521,0.366l-24.907-19.348
	c-0.565-0.44-0.354-1.317,0.472-1.958s1.955-0.806,2.521-0.366l24.907,19.348C453.5,244.126,453.289,245.003,452.463,245.645z"/>
<g>
	<path fill="#43328A" d="M493.385,282.743c-0.051,0.041-0.094,0.085-0.146,0.125l-60.007,46.611c-6.697,5.202-17.555,5.202-24.251,0
		l-60.006-46.611c-0.052-0.04-0.095-0.084-0.146-0.125c-6.543,5.21-6.5,13.551,0.146,18.712l60.006,46.611
		c6.696,5.202,17.554,5.202,24.251,0l60.007-46.611C499.884,296.293,499.927,287.953,493.385,282.743z"/>
</g>
<g>
	<path fill="#43328A" d="M493.385,261.743c-0.051,0.041-0.094,0.085-0.146,0.125l-60.007,46.611c-6.697,5.202-17.555,5.202-24.251,0
		l-60.006-46.611c-0.052-0.04-0.095-0.084-0.146-0.125c-6.543,5.21-6.5,13.551,0.146,18.713l60.006,46.611
		c6.696,5.202,17.554,5.202,24.251,0l60.007-46.611C499.884,275.293,499.927,266.953,493.385,261.743z"/>
</g>
<path fill="#43328A" d="M476.597,193.504l-67.605,0.085l-60.005,46.61c-0.007,0.005-0.012,0.011-0.019,0.017l-0.108,0.084
	c-6.697,5.202-6.58,13.527,0.117,18.73l60.016,46.619c0,0,0.445,0.368,1.241,0.871c0.042,0.027,0.083,0.054,0.125,0.079
	c0.322,0.2,0.701,0.418,1.123,0.642c0.138,0.072,0.276,0.144,0.416,0.213c0.349,0.174,0.724,0.348,1.125,0.517
	c0.075,0.031,0.15,0.063,0.226,0.094c0.69,0.28,1.447,0.544,2.268,0.759c0.154,0.04,0.296,0.068,0.446,0.104
	c0.168,0.041,0.336,0.081,0.506,0.118c0.463,0.101,0.906,0.186,1.317,0.25c0.059,0.009,0.118,0.016,0.178,0.024
	c1.891,0.281,3.146,0.23,3.146,0.23c4.392,0.002,8.786-1.298,12.137-3.901l60.006-46.611l0.494-52.213
	C493.744,199.467,486.067,193.504,476.597,193.504z M476.599,195.504c8.352,0,15.146,5.079,15.146,11.301l-0.475,50.109
	l-74.394-4.48l-5.675-56.848L476.599,195.504z M392.996,245.121c-0.826,0.642-1.867,0.875-2.324,0.519l-20.12-15.629
	c-0.457-0.355-0.158-1.164,0.668-1.805c0.826-0.642,1.867-0.874,2.324-0.519l20.12,15.629
	C394.121,243.67,393.822,244.479,392.996,245.121z"/>
<g>
	<path fill="#43328A" d="M373.956,388.613c-0.154-4.154-0.308-9.181-0.308-14.207h-0.154c-1.077,4.411-2.513,9.334-3.846,13.387
		l-4.206,13.488h-6.103l-3.692-13.387c-1.128-4.052-2.309-8.975-3.129-13.488h-0.102c-0.206,4.668-0.359,10.001-0.616,14.31
		l-0.616,13.13h-7.231l2.205-34.568h10.412l3.384,11.54c1.078,4.001,2.155,8.308,2.924,12.36h0.153
		c0.975-4,2.155-8.565,3.283-12.412l3.693-11.488h10.207l1.897,34.568h-7.642L373.956,388.613z"/>
	<path fill="#43328A" d="M402.262,401.846l-0.46-2.514h-0.155c-1.64,2-4.205,3.077-7.18,3.077c-5.077,0-8.103-3.692-8.103-7.692
		c0-6.514,5.847-9.643,14.72-9.592v-0.359c0-1.332-0.719-3.23-4.565-3.23c-2.563,0-5.283,0.872-6.925,1.898l-1.435-5.027
		c1.744-0.975,5.181-2.205,9.745-2.205c8.36,0,11.027,4.924,11.027,10.822v8.719c0,2.41,0.103,4.719,0.36,6.104H402.262z
		 M401.338,389.998c-4.102-0.051-7.283,0.924-7.283,3.949c0,2,1.335,2.975,3.079,2.975c1.948,0,3.538-1.282,4.052-2.873
		c0.102-0.41,0.152-0.871,0.152-1.334V389.998z"/>
	<path fill="#43328A" d="M423.135,369.79c0,2.154-1.642,3.897-4.206,3.897c-2.462,0-4.103-1.743-4.053-3.897
		c-0.05-2.257,1.591-3.949,4.104-3.949C421.493,365.841,423.083,367.533,423.135,369.79z M415.084,401.846v-25.08h7.795v25.08
		H415.084z"/>
	<path fill="#43328A" d="M429.135,365.432h7.795v36.414h-7.795V365.432z"/>
	<path fill="#43328A" d="M444.005,367.277h4.463v16.669h0.153c0.924-1.334,1.846-2.565,2.72-3.692l10.565-12.977h5.539
		l-12.515,14.668l13.489,19.9h-5.285l-11.386-16.977l-3.281,3.795v13.182h-4.463V367.277z"/>
	<path fill="#43328A" d="M477.186,370.047c0.054,1.538-1.076,2.77-2.871,2.77c-1.59,0-2.718-1.231-2.718-2.77
		c0-1.59,1.179-2.82,2.82-2.82C476.109,367.227,477.186,368.457,477.186,370.047z M472.16,401.846v-24.823h4.513v24.823H472.16z"/>
	<path fill="#43328A" d="M489.597,369.893v7.13h6.462v3.437h-6.462v13.385c0,3.078,0.873,4.821,3.386,4.821
		c1.178,0,2.052-0.153,2.614-0.307l0.208,3.386c-0.874,0.358-2.258,0.613-4.003,0.613c-2.103,0-3.796-0.666-4.872-1.896
		c-1.283-1.334-1.744-3.539-1.744-6.463v-13.539h-3.846v-3.437h3.846v-5.95L489.597,369.893z"/>
</g>
</svg>
