<?xml version="1.0" encoding="utf-8"?>
<!-- Generator: Adobe Illustrator 16.0.0, SVG Export Plug-In . SVG Version: 6.00 Build 0)  -->
<!DOCTYPE svg PUBLIC "-//W3C//DTD SVG 1.1//EN" "http://www.w3.org/Graphics/SVG/1.1/DTD/svg11.dtd">
<svg version="1.1" id="Capa_1" xmlns="http://www.w3.org/2000/svg" xmlns:xlink="http://www.w3.org/1999/xlink" x="0px" y="0px"
	 width="841.89px" height="595.28px" viewBox="0 0 841.89 595.28" enable-background="new 0 0 841.89 595.28" xml:space="preserve">
<path fill="#FFFFFF" d="M201.49,261.574c-0.826,0.643-1.955,0.807-2.521,0.367l-24.907-19.348c-0.565-0.44-0.354-1.317,0.472-1.958
	l0,0c0.826-0.642,1.955-0.806,2.521-0.366l24.907,19.349C202.527,260.057,202.316,260.934,201.49,261.574L201.49,261.574z"/>
<g>
	<path fill="#FFFFFF" d="M377.226,302.372c-0.472-13.146-0.944-29.054-0.944-44.96h-0.472c-3.291,13.96-7.681,29.54-11.763,42.365
		l-12.861,42.685h-18.664l-11.295-42.363c-3.449-12.823-7.06-28.402-9.569-42.687h-0.311c-0.633,14.773-1.098,31.65-1.884,45.284
		l-1.885,41.554h-22.112l6.744-109.398h31.844l10.348,36.521c3.297,12.662,6.592,26.29,8.944,39.116h0.467
		c2.98-12.658,6.59-27.105,10.04-39.281l11.295-36.355h31.214l5.803,109.398h-23.371L377.226,302.372z"/>
	<path fill="#FFFFFF" d="M463.789,344.25l-1.408-7.955h-0.474c-5.014,6.33-12.857,9.737-21.959,9.737
		c-15.523,0-24.778-11.686-24.778-24.344c0-20.614,17.88-30.517,45.017-30.354v-1.139c0-4.214-2.196-10.222-13.959-10.222
		c-7.839,0-16.157,2.76-21.181,6.008l-4.388-15.91c5.332-3.085,15.844-6.979,29.804-6.979c25.564,0,33.724,15.582,33.724,34.25
		v27.59c0,7.628,0.312,14.935,1.1,19.317H463.789z M460.963,306.755c-12.543-0.161-22.271,2.923-22.271,12.498
		c0,6.329,4.083,9.413,9.416,9.413c5.958,0,10.818-4.057,12.393-9.093c0.313-1.296,0.462-2.756,0.462-4.221V306.755z"/>
	<path fill="#FFFFFF" d="M527.623,242.803c0,6.818-5.016,12.335-12.859,12.335c-7.531,0-12.55-5.517-12.394-12.335
		c-0.156-7.141,4.862-12.498,12.55-12.498S527.467,235.662,527.623,242.803z M503.003,344.25v-79.37h23.838v79.37H503.003z"/>
	<path fill="#FFFFFF" d="M545.973,229.01h23.841v115.24h-23.841V229.01z"/>
	<path fill="#FFFFFF" d="M591.454,234.852h13.647v52.752h0.466c2.827-4.221,5.646-8.12,8.321-11.687l32.309-41.065h16.94
		l-38.27,46.419l41.251,62.979h-16.164l-34.817-53.726l-10.036,12.01v41.716h-13.647V234.852z"/>
	<path fill="#FFFFFF" d="M692.926,243.616c0.167,4.867-3.292,8.765-8.78,8.765c-4.862,0-8.309-3.898-8.309-8.765
		c0-5.033,3.602-8.925,8.625-8.925C689.634,234.691,692.926,238.583,692.926,243.616z M677.557,344.25v-78.558h13.805v78.558
		H677.557z"/>
	<path fill="#FFFFFF" d="M730.885,243.128v22.564h19.76v10.874h-19.76v42.358c0,9.741,2.671,15.258,10.353,15.258
		c3.601,0,6.278-0.483,7.998-0.97l0.633,10.715c-2.669,1.136-6.903,1.942-12.239,1.942c-6.433,0-11.611-2.109-14.902-6.003
		c-3.925-4.222-5.335-11.201-5.335-20.452v-42.849h-11.761v-10.874h11.761v-18.832L730.885,243.128z"/>
</g>
<path fill="#FFFFFF" d="M222.069,249.867l-35.576-27.635c-2.164-1.681-5.674-1.681-7.838,0l-35.577,27.635
	c-2.165,1.681,1.427,3.451,3.591,5.132l31.986,28.591c2.164,1.681,5.674,1.681,7.838,0l35.577-27.635
	C224.234,254.275,224.234,251.549,222.069,249.867z M196.478,262.814c-0.826,0.642-1.955,0.806-2.521,0.366l-24.907-19.348
	c-0.566-0.439-0.355-1.316,0.472-1.958c0.826-0.642,1.955-0.806,2.521-0.366l24.907,19.348
	C197.515,261.295,197.304,262.172,196.478,262.814z M203.132,257.645c-0.826,0.642-1.955,0.806-2.521,0.366l-24.907-19.348
	c-0.565-0.44-0.354-1.317,0.472-1.958s1.955-0.806,2.521-0.366l24.907,19.348C204.169,256.126,203.958,257.003,203.132,257.645z"/>
<g>
	<path fill="#FFFFFF" d="M244.054,294.743c-0.051,0.041-0.094,0.085-0.146,0.125l-60.007,46.611c-6.697,5.202-17.555,5.202-24.251,0
		l-60.006-46.611c-0.052-0.04-0.095-0.084-0.146-0.125c-6.543,5.21-6.5,13.55,0.146,18.712l60.006,46.611
		c6.696,5.202,17.554,5.202,24.251,0l60.007-46.611C250.553,308.293,250.596,299.953,244.054,294.743z"/>
</g>
<g>
	<path fill="#FFFFFF" d="M244.054,273.743c-0.051,0.041-0.094,0.085-0.146,0.125l-60.007,46.611c-6.697,5.202-17.555,5.202-24.251,0
		l-60.006-46.611c-0.052-0.04-0.095-0.084-0.146-0.125c-6.543,5.21-6.5,13.551,0.146,18.713l60.006,46.611
		c6.696,5.202,17.554,5.202,24.251,0l60.007-46.611C250.553,287.293,250.596,278.953,244.054,273.743z"/>
</g>
<path fill="#FFFFFF" d="M227.266,205.504l-67.605,0.085l-60.005,46.61c-0.007,0.005-0.012,0.011-0.019,0.017l-0.108,0.084
	c-6.697,5.202-6.58,13.527,0.117,18.73l60.016,46.619c0,0,0.445,0.368,1.241,0.871c0.041,0.027,0.083,0.054,0.125,0.079
	c0.321,0.2,0.7,0.418,1.122,0.642c0.138,0.072,0.276,0.144,0.415,0.213c0.35,0.174,0.725,0.348,1.126,0.517
	c0.075,0.031,0.149,0.063,0.226,0.094c0.69,0.28,1.447,0.544,2.268,0.759c0.154,0.04,0.297,0.068,0.446,0.104
	c0.169,0.041,0.337,0.081,0.506,0.118c0.463,0.101,0.906,0.186,1.317,0.25c0.059,0.009,0.118,0.016,0.178,0.024
	c1.891,0.281,3.146,0.23,3.146,0.23c4.392,0.002,8.785-1.298,12.137-3.901l60.006-46.611l0.494-52.213
	C244.413,211.467,236.736,205.504,227.266,205.504z M227.268,207.504c8.352,0,15.146,5.079,15.146,11.301l-0.475,50.109
	l-74.395-4.48l-5.674-56.848L227.268,207.504z M143.665,257.121c-0.826,0.642-1.867,0.875-2.324,0.519l-20.12-15.629
	c-0.457-0.355-0.157-1.164,0.668-1.805c0.826-0.642,1.867-0.874,2.324-0.519l20.12,15.629
	C144.79,255.67,144.491,256.479,143.665,257.121z"/>
</svg>
